<svg version="1.1" baseProfile="full" xmlns="http://www.w3.org/2000/svg" width="395.99999999999994" height="148.1822480032004" viewBox="0 0 200 74.83951919353557" class="svg-as-logo">
    <defs id="SvgjsDefs2246"></defs>
    <g id="SvgjsG2247" featurekey="dFhhLb-0" transform="matrix(4.943269894665304,0,0,4.943269894665304,3.5721599566739775,-25.52396748775728)" fill="#ff372d">
        <path d="M2.832 13.6328 l-1.123 0 l4.5898 -8.1934 l4.873 0 l0.79102 8.1934 l1.0938 0 l0.61523 6.3574 l-5.0293 0 l-0.20508 -2.7441 l-2.7832 0 c-0.48828 0.9082 -0.94727 1.8262 -1.4355 2.7441 l-4.9414 0 z M8.3105 13.837900000000001 l0 -0.20508 l-1.0645 0 l0.019531 -3.2422 l-1.3086 3.2422 l1.084 0 l-0.078125 0.20508 l1.3477 0 z M19.121053125 16.6699 l-0.77148 3.3301 l-3.3887 0 l0.76172 -3.3301 l3.3984 0 z M32.480546875 13.3594 c0.56641 2.0508 -1.1328 4.4727 -2.7051 5.5371 c-3.0859 2.0215 -7.1582 1.6992 -10.313 0.078125 l0.91797 -4.0625 l1.5137 0 c0.19531 2.0996 4.8926 2.9688 5.3711 0.89844 c0.23438 -1.0254 -3.4473 -1.3086 -4.6777 -2.2754 c-0.068359 -0.058594 -0.14648 -0.11719 -0.20508 -0.17578 l-0.89844 0 c-0.97656 -0.91797 -1.0645 -2.1387 -0.78125 -3.4082 c1.1914 -5.2051 8.2617 -5.7227 12.344 -3.6621 l-0.9082 3.9551 l-1.5234 0 c0.097656 -1.4844 -4.3945 -2.5 -4.8145 -0.71289 c-0.2832 1.3867 4.2676 0.97656 5.5273 3.1738 c0.10742 0.19531 0.19531 0.42969 0.25391 0.6543 l0.89844 0 z M38.5449625 13.2715 l-0.60547 2.2168 l-4.2871 0 l0.42969 -2.2168 l-0.91797 0 l1.4746 -7.6465 l5.0977 0 l-2.0898 7.6465 l0.89844 0 z M38.1152625 16.5234 l-0.78125 3.4277 l-5.0098 0 l0.76172 -3.4277 l5.0293 0 z"></path>
    </g>
</svg>